<?xml version="1.0" standalone="no"?>
<!DOCTYPE svg PUBLIC "-//W3C//DTD SVG 20010904//EN"
 "http://www.w3.org/TR/2001/REC-SVG-20010904/DTD/svg10.dtd">
<svg version="1.0" xmlns="http://www.w3.org/2000/svg"
 width="1000.000000pt" height="97.000000pt" viewBox="0 0 1000.000000 97.000000"
 preserveAspectRatio="xMidYMid meet">

<g transform="translate(0.000000,97.000000) scale(0.100000,-0.100000)"
fill="#000000" stroke="none">
<path d="M2518 943 c-43 -4 -48 -7 -48 -29 0 -26 1 -27 68 -44 l42 -11 -2
-372 -3 -372 -50 -17 c-44 -14 -50 -19 -50 -45 l0 -28 148 -3 147 -3 0 32 c0
27 -5 33 -40 46 l-40 16 0 109 0 108 58 0 57 0 64 -118 c36 -64 75 -134 88
-154 l23 -38 75 0 75 0 0 33 c0 30 -3 34 -43 44 -43 12 -46 15 -124 152 l-80
140 63 95 c59 89 66 95 106 103 40 8 43 11 40 38 -2 17 -5 31 -7 33 -1 1 -57
0 -124 -4 l-121 -7 0 -29 c0 -16 5 -28 13 -28 6 0 18 -4 26 -9 10 -7 5 -23
-29 -80 -23 -39 -47 -74 -53 -78 -5 -3 -30 -6 -56 -6 l-46 0 -3 267 -2 266
-63 -2 c-34 -1 -83 -3 -109 -5z"/>
<path d="M222 869 c-132 -23 -204 -101 -205 -224 -1 -133 58 -185 316 -279 26
-10 63 -33 82 -51 64 -59 41 -145 -49 -186 -47 -21 -152 -24 -206 -6 -35 12
-34 10 -56 114 -4 20 -11 23 -50 23 l-45 0 3 -102 3 -103 65 -18 c90 -26 248
-28 315 -4 112 39 169 117 170 233 0 60 -4 76 -27 112 -32 48 -84 80 -188 118
-190 68 -249 129 -205 214 31 60 161 90 254 57 30 -11 36 -19 53 -74 18 -61
20 -63 52 -63 l34 0 7 96 c4 52 5 98 2 101 -12 11 -145 41 -207 46 -36 3 -89
1 -118 -4z"/>
<path d="M848 817 l-48 -10 0 -77 0 -77 -60 -7 -60 -7 0 -34 0 -35 59 0 60 0
3 -239 c3 -225 4 -241 24 -268 32 -43 89 -59 156 -45 29 7 68 21 86 32 32 20
32 20 16 45 -12 18 -22 24 -33 19 -9 -3 -37 -9 -62 -11 -76 -8 -79 1 -79 254
l0 213 90 0 90 0 0 40 0 40 -90 0 -90 0 0 90 c0 50 -3 89 -7 89 -5 -1 -29 -6
-55 -12z"/>
<path d="M1382 652 c-118 -42 -188 -144 -199 -287 -11 -157 37 -266 142 -320
51 -26 69 -30 139 -30 64 0 91 5 128 23 107 52 169 165 170 307 1 147 -48 247
-145 297 -58 29 -167 34 -235 10z m178 -91 c23 -12 44 -36 60 -67 22 -42 25
-61 25 -149 0 -87 -3 -107 -25 -149 -31 -62 -64 -87 -123 -93 -61 -7 -90 1
-132 38 -43 38 -65 106 -65 199 0 116 34 189 105 228 32 18 116 14 155 -7z"/>
<path d="M2085 657 c-91 -30 -156 -94 -191 -187 -20 -54 -23 -196 -6 -257 44
-151 196 -232 356 -189 34 10 86 31 114 47 48 27 51 31 41 52 -24 45 -28 47
-66 21 -80 -54 -194 -58 -258 -9 -94 71 -114 283 -38 384 34 44 78 61 162 61
76 0 101 -13 101 -55 0 -43 10 -55 46 -55 l34 0 0 70 c0 39 1 73 3 78 1 4 -23
15 -53 25 -71 24 -193 31 -245 14z"/>
</g>
</svg>
